<?xml version="1.0" encoding="utf-8"?>
<!-- Generator: Adobe Illustrator 24.1.0, SVG Export Plug-In . SVG Version: 6.00 Build 0)  -->
<svg version="1.1" id="Layer_1" xmlns="http://www.w3.org/2000/svg" xmlns:xlink="http://www.w3.org/1999/xlink" x="0px" y="0px"
	 viewBox="0 0 300 300" style="enable-background:new 0 0 300 300;" xml:space="preserve">
<style type="text/css">
	.st0{fill:#E6E6E6;}
</style>
<g>
	<path class="st0" d="M22.92,158.71c0-10.11,1.1-16.29,1.1-25.56c0-5.06-3.07-10.4-15.48-10.53v-9.83
		c12.4-0.14,15.48-5.48,15.48-10.53c0-8.85-1.1-15.87-1.1-25.56c0-14.89,6.48-19.38,20.42-19.38h7.57v8.85h-5.05
		c-10.21,0-12.4,2.81-12.4,11.24c0,7.73,0.55,15.59,0.55,24.16c0,9.83-2.74,14.19-10.43,15.87v0.56
		c7.68,1.69,10.43,6.04,10.43,15.87c0,8.99-0.55,16.01-0.55,24.16c0,8.43,2.2,11.24,12.4,11.24h5.05v8.85h-7.57
		C29.4,178.1,22.92,173.6,22.92,158.71z"/>
	<path class="st0" d="M276.73,223.9c0-10.11-1.1-16.29-1.1-25.56c0-5.06,3.07-10.4,15.48-10.53v-9.83
		c-12.4-0.14-15.48-5.48-15.48-10.53c0-8.85,1.1-15.87,1.1-25.56c0-14.89-6.48-19.38-20.42-19.38h-7.57v8.85h5.05
		c10.21,0,12.4,2.81,12.4,11.24c0,7.73-0.55,15.59-0.55,24.16c0,9.83,2.74,14.19,10.43,15.87v0.56
		c-7.68,1.69-10.43,6.04-10.43,15.87c0,8.99,0.55,16.01,0.55,24.16c0,8.43-2.2,11.24-12.4,11.24h-5.05v8.85h7.57
		C270.26,243.29,276.73,238.79,276.73,223.9z"/>
	<path class="st0" d="M59.48,57.3h11.26l3,32.23c0.36,4.68,0.64,8.16,0.82,13.35h0.27c1-5.19,1.82-8.67,2.91-13.35l4.9-18.03h7.9
		l4.63,18.03c1.18,4.59,2,8.08,2.91,13.35h0.36c0.27-5.27,0.36-8.76,0.73-13.35l2.91-32.23h10.62l-7.99,55.61H92.8l-4.63-19.73
		c-0.82-3.49-1.54-6.97-1.91-10.37h-0.27c-0.55,3.4-1,6.89-1.82,10.37l-4.54,19.73H67.93L59.48,57.3z"/>
	<path class="st0" d="M132.67,57.3h38.04v8.33H143.2v14.2h23.33v8.33H143.2v16.41h28.42v8.33h-38.95V57.3z"/>
	<path class="st0" d="M195.59,57.3h18.43c12.26,0,21.06,3.49,21.06,13.69c0,5.27-3.27,10.37-10.26,12.07v0.34
		c8.53,1.36,13.35,5.61,13.35,13.18c0,11.14-9.53,16.32-22.61,16.32h-19.98V57.3z M213.11,80.17c8.26,0,11.62-2.81,11.62-7.99
		c0-5.1-3.72-6.97-11.44-6.97h-7.17v14.96H213.11z M214.47,105c8.72,0,13.35-2.81,13.35-9.1c0-5.87-4.45-8.25-13.35-8.25h-8.35V105
		H214.47z"/>
	<path class="st0" d="M65.93,122.49h15.62c17.52,0,27.96,9.18,27.96,27.55c0,18.45-10.44,28.06-27.42,28.06H65.93V122.49z
		 M80.91,170.1c11.35,0,17.8-6.38,17.8-20.07c0-13.6-6.45-19.56-17.8-19.56h-4.45v39.62H80.91z"/>
	<path class="st0" d="M132.67,122.49h38.04v8.33H143.2v14.2h23.33v8.33H143.2v16.41h28.42v8.33h-38.95V122.49z"/>
	<path class="st0" d="M190.32,122.49h11.17l8.35,27.97c1.91,6.29,3.27,11.73,5.27,18.11h0.36c2-6.38,3.36-11.82,5.18-18.11
		l8.26-27.97h10.8l-18.43,55.61h-12.44L190.32,122.49z"/>
	<path class="st0" d="M65.93,187.68h15.62c17.52,0,27.96,9.18,27.96,27.55c0,18.45-10.44,28.06-27.42,28.06H65.93V187.68z
		 M80.91,235.29c11.35,0,17.8-6.38,17.8-20.07c0-13.6-6.45-19.56-17.8-19.56h-4.45v39.62H80.91z"/>
	<path class="st0" d="M144.38,187.68h12.35l19.25,55.61h-11.17l-4.54-15.05h-19.79l-4.63,15.05h-10.71L144.38,187.68z M142.83,220.5
		h15.07l-2.09-6.8c-1.72-5.87-3.63-12.16-5.27-18.37h-0.36c-1.63,6.21-3.45,12.5-5.27,18.37L142.83,220.5z"/>
	<path class="st0" d="M209.75,223.99l-19.52-36.31h11.17l7.45,14.96c2.09,4.25,4,8.33,6.08,12.84h0.36
		c2.18-4.51,4.27-8.59,6.27-12.92l7.35-14.88h10.9l-19.52,36.31v19.3h-10.53V223.99z"/>
</g>
</svg>
