<?xml version="1.0" encoding="utf-8"?>
<!-- Generator: Adobe Illustrator 24.1.0, SVG Export Plug-In . SVG Version: 6.00 Build 0)  -->
<svg version="1.1" id="Layer_1" xmlns="http://www.w3.org/2000/svg" xmlns:xlink="http://www.w3.org/1999/xlink" x="0px" y="0px"
	 viewBox="0 0 300 300" style="enable-background:new 0 0 300 300;" xml:space="preserve">
<style type="text/css">
	.st0{fill:#E6E6E6;}
</style>
<g>
	<path class="st0" d="M150.38,184.8h-0.28c-1.25,4.76-2.64,9.58-4.03,14.07l-1.6,5.21h11.55l-1.6-5.21
		C153.1,194.37,151.63,189.55,150.38,184.8z"/>
	<path class="st0" d="M97.03,135.12h-3.41v30.35h3.41c8.69,0,13.63-4.89,13.63-15.37C110.66,139.68,105.73,135.12,97.03,135.12z"/>
	<path class="st0" d="M209.58,108.63c0-4.49-3.41-6.32-10.23-6.32h-6.4v13.29h6.4C206.03,115.6,209.58,113.45,209.58,108.63z"/>
	<path class="st0" d="M207.21,90.45c0-3.91-2.85-5.34-8.76-5.34h-5.49v11.46h5.36C204.64,96.58,207.21,94.43,207.21,90.45z"/>
	<path class="st0" d="M97.03,185.06h-3.41v30.35h3.41c8.69,0,13.63-4.89,13.63-15.37C110.66,189.62,105.73,185.06,97.03,185.06z"/>
	<path class="st0" d="M149.83,7.78C71.12,7.78,7.32,71.59,7.32,150.29s63.8,142.51,142.51,142.51S292.34,229,292.34,150.29
		S228.54,7.78,149.83,7.78z M184.88,79.05H199c9.39,0,16.14,2.67,16.14,10.49c0,4.04-2.5,7.95-7.86,9.25v0.26
		c6.54,1.04,10.23,4.3,10.23,10.1c0,8.53-7.3,12.51-17.32,12.51h-15.3V79.05z M189.4,128.99l6.4,21.43
		c1.46,4.82,2.5,8.99,4.03,13.87h0.28c1.53-4.89,2.57-9.05,3.96-13.87l6.33-21.43h8.28l-14.12,42.6h-9.53l-14.19-42.6H189.4z
		 M136.68,79.05h29.14v6.38h-21.08v10.88h17.88v6.38h-17.88v12.57h21.77v6.38h-29.84V79.05z M136.68,128.99h29.14v6.38h-21.08v10.88
		h17.88v6.38h-17.88v12.57h21.77v6.38h-29.84V128.99z M74.05,85.83h-3.87c-7.82,0-9.5,2.15-9.5,8.61c0,5.92,0.42,11.94,0.42,18.51
		c0,7.53-2.1,10.87-7.99,12.16v0.43c5.89,1.29,7.99,4.63,7.99,12.16c0,6.89-0.42,12.27-0.42,18.51c0,6.46,1.68,8.61,9.5,8.61h3.87
		v6.78h-5.8c-10.68,0-15.64-3.44-15.64-14.85c0-7.75,0.84-12.48,0.84-19.58c0-3.87-2.35-7.96-11.86-8.07v-7.53
		c9.5-0.11,11.86-4.2,11.86-8.07c0-6.78-0.84-12.16-0.84-19.58c0-11.41,4.96-14.85,15.64-14.85h5.8V85.83z M97.94,221.53H85.55
		v-42.6h11.96c13.42,0,21.42,7.03,21.42,21.1C118.94,214.17,110.94,221.53,97.94,221.53z M97.94,171.59H85.55v-42.6h11.96
		c13.42,0,21.42,7.03,21.42,21.1C118.94,164.23,110.94,171.59,97.94,171.59z M115.26,121.65h-9.11l-3.55-15.11
		c-0.63-2.67-1.18-5.34-1.46-7.95h-0.21c-0.42,2.61-0.77,5.28-1.39,7.95l-3.48,15.11h-8.97l-6.47-42.6h8.63l2.29,24.69
		c0.28,3.58,0.49,6.25,0.63,10.23h0.21c0.77-3.97,1.39-6.64,2.23-10.23l3.76-13.81h6.05l3.55,13.81c0.9,3.52,1.53,6.19,2.23,10.23
		h0.28c0.21-4.04,0.28-6.71,0.56-10.23l2.23-24.69h8.14L115.26,121.65z M161.3,221.53l-3.48-11.53h-15.16l-3.55,11.53h-8.21
		l14.75-42.6h9.46l14.75,42.6H161.3z M203.8,206.75v14.79h-8.07v-14.79l-14.95-27.81h8.56l5.7,11.46c1.6,3.26,3.06,6.38,4.66,9.84
		h0.28c1.67-3.45,3.27-6.58,4.8-9.9l5.63-11.4h8.35L203.8,206.75z M246.21,187.1c0,7.1,0.84,11.84,0.84,19.58
		c0,11.41-4.96,14.85-15.64,14.85h-5.8v-6.78h3.87c7.82,0,9.5-2.15,9.5-8.61c0-6.24-0.42-11.62-0.42-18.51
		c0-7.53,2.1-10.87,7.99-12.16v-0.43c-5.89-1.29-7.99-4.63-7.99-12.16c0-6.56,0.42-12.59,0.42-18.51c0-6.46-1.68-8.61-9.5-8.61
		h-3.87v-6.78h5.8c10.68,0,15.64,3.44,15.64,14.85c0,7.42-0.84,12.8-0.84,19.58c0,3.87,2.35,7.96,11.86,8.07v7.53
		C248.56,179.14,246.21,183.23,246.21,187.1z"/>
</g>
</svg>
